<svg xmlns="http://www.w3.org/2000/svg" version="1.1" xmlns:xlink="http://www.w3.org/1999/xlink" xmlns:svgjs="http://svgjs.com/svgjs" width="1440" height="560" preserveAspectRatio="none" viewBox="0 0 1440 560"><g mask="url(&quot;#SvgjsMask1061&quot;)" fill="none"><rect width="1440" height="560" x="0" y="0" fill="url(#SvgjsLinearGradient1062)"></rect><path d="M0 0L667.49 0L0 13.47z" fill="rgba(255, 255, 255, .1)"></path><path d="M0 13.47L667.49 0L878.75 0L0 179.3z" fill="rgba(255, 255, 255, .075)"></path><path d="M0 179.3L878.75 0L1017.6800000000001 0L0 200.99z" fill="rgba(255, 255, 255, .05)"></path><path d="M0 200.99L1017.6800000000001 0L1317.5700000000002 0L0 255.37z" fill="rgba(255, 255, 255, .025)"></path><path d="M1440 560L785.55 560L1440 455.53z" fill="rgba(0, 0, 0, .1)"></path><path d="M1440 455.53L785.55 560L463.30999999999995 560L1440 304.94999999999993z" fill="rgba(0, 0, 0, .075)"></path><path d="M1440 304.95L463.30999999999995 560L293.94999999999993 560L1440 295.90999999999997z" fill="rgba(0, 0, 0, .05)"></path><path d="M1440 295.90999999999997L293.9499999999998 560L277.8899999999998 560L1440 158.83999999999997z" fill="rgba(0, 0, 0, .025)"></path></g><defs><mask id="SvgjsMask1061"><rect width="1440" height="560" fill="#ffffff"></rect></mask><linearGradient x1="84.72%" y1="139.29%" x2="15.28%" y2="-39.29%" gradientUnits="userSpaceOnUse" id="SvgjsLinearGradient1062"><stop stop-color="#0e2a47" offset="0"></stop><stop stop-color="rgba(87, 0, 182, 1)" offset="1"></stop></linearGradient></defs></svg>