<svg id="visual" viewBox="0 0 900 600" width="900" height="600" xmlns="http://www.w3.org/2000/svg" xmlns:xlink="http://www.w3.org/1999/xlink" version="1.1"><rect x="0" y="0" width="900" height="600" fill="#5700B6"></rect><defs><linearGradient id="grad1_0" x1="33.3%" y1="0%" x2="100%" y2="100%"><stop offset="20%" stop-color="#5700b6" stop-opacity="1"></stop><stop offset="80%" stop-color="#5700b6" stop-opacity="1"></stop></linearGradient></defs><defs><linearGradient id="grad2_0" x1="0%" y1="0%" x2="66.7%" y2="100%"><stop offset="20%" stop-color="#5700b6" stop-opacity="1"></stop><stop offset="80%" stop-color="#5700b6" stop-opacity="1"></stop></linearGradient></defs><g transform="translate(900, 0)"><path d="M0 189.3C-22.1 180.3 -44.3 171.3 -67.7 163.5C-91.2 155.7 -115.9 149.1 -133.8 133.8C-151.8 118.6 -162.8 94.6 -170.9 70.8C-179 47 -184.2 23.5 -189.3 0L0 0Z" fill="#50257D"></path></g><g transform="translate(0, 600)"><path d="M0 -189.3C20.4 -177.1 40.8 -165 65.4 -158C90 -151 118.8 -149.2 133.8 -133.8C148.9 -118.5 150.1 -89.6 157.1 -65.1C164 -40.5 176.6 -20.2 189.3 0L0 0Z" fill="#50257D"></path></g></svg>