<svg id="visual" viewBox="0 0 900 600" width="900" height="600" xmlns="http://www.w3.org/2000/svg" xmlns:xlink="http://www.w3.org/1999/xlink" version="1.1"><rect x="0" y="0" width="900" height="600" fill="#5700B6"></rect><path d="M0 433L129 410L257 438L386 383L514 416L643 441L771 414L900 399L900 601L771 601L643 601L514 601L386 601L257 601L129 601L0 601Z" fill="#a14cfd"></path><path d="M0 470L129 406L257 475L386 417L514 453L643 427L771 430L900 427L900 601L771 601L643 601L514 601L386 601L257 601L129 601L0 601Z" fill="#8c42dc"></path><path d="M0 484L129 443L257 461L386 485L514 478L643 491L771 470L900 467L900 601L771 601L643 601L514 601L386 601L257 601L129 601L0 601Z" fill="#7738bb"></path><path d="M0 519L129 519L257 537L386 507L514 515L643 525L771 489L900 506L900 601L771 601L643 601L514 601L386 601L257 601L129 601L0 601Z" fill="#632e9b"></path><path d="M0 543L129 565L257 541L386 557L514 570L643 540L771 555L900 571L900 601L771 601L643 601L514 601L386 601L257 601L129 601L0 601Z" fill="#50257d"></path></svg>