<svg id="visual" viewBox="0 0 960 540" width="960" height="540" xmlns="http://www.w3.org/2000/svg" xmlns:xlink="http://www.w3.org/1999/xlink" version="1.1"><rect x="0" y="0" width="960" height="540" fill="#5700B6"></rect><path d="M834 540L844.3 525C854.7 510 875.3 480 885.3 450C895.3 420 894.7 390 885.2 360C875.7 330 857.3 300 857.8 270C858.3 240 877.7 210 886.2 180C894.7 150 892.3 120 881.2 90C870 60 850 30 840 15L830 0L960 0L960 15C960 30 960 60 960 90C960 120 960 150 960 180C960 210 960 240 960 270C960 300 960 330 960 360C960 390 960 420 960 450C960 480 960 510 960 525L960 540Z" fill="#3b017a" stroke-linecap="round" stroke-linejoin="miter"></path></svg>